<svg width="18" height="18" viewBox="0 0 18 18" fill="none" xmlns="http://www.w3.org/2000/svg">
<path d="M16.6377 8.87727L9.84548 2.0886L9.39021 1.63333C9.28648 1.53028 9.14619 1.47244 8.99997 1.47244C8.85376 1.47244 8.71347 1.53028 8.60974 1.63333L1.36228 8.87727C1.25599 8.98315 1.17198 9.10925 1.11522 9.24813C1.05846 9.38701 1.0301 9.53585 1.03181 9.68587C1.03884 10.3046 1.55388 10.7986 2.17263 10.7986H2.9197V16.5238H15.0802V10.7986H15.8431C16.1437 10.7986 16.4267 10.6808 16.6394 10.4681C16.7442 10.3637 16.8271 10.2396 16.8836 10.1029C16.94 9.9662 16.9687 9.81968 16.9681 9.6718C16.9681 9.37298 16.8504 9.08997 16.6377 8.87727V8.87727ZM9.98435 15.2581H8.0156V11.6722H9.98435V15.2581ZM13.8146 9.53294V15.2581H11.1093V11.2503C11.1093 10.8618 10.7947 10.5472 10.4062 10.5472H7.59372C7.20525 10.5472 6.8906 10.8618 6.8906 11.2503V15.2581H4.18533V9.53294H2.49783L9.00173 3.0343L9.40779 3.44036L15.5039 9.53294H13.8146Z" fill="#8C8C8C"/>
</svg>
