<svg width="15" height="14" viewBox="0 0 15 14" fill="none" xmlns="http://www.w3.org/2000/svg">
<path d="M14.4201 9.73019H5.11543L5.58262 8.77863L13.3451 8.76456C13.6076 8.76456 13.8326 8.57706 13.8795 8.31769L14.9545 2.3005C14.9826 2.14269 14.9404 1.98019 14.8373 1.85675C14.7863 1.796 14.7228 1.74707 14.651 1.71334C14.5792 1.67961 14.501 1.6619 14.4217 1.66144L4.54668 1.62863L4.4623 1.23175C4.40918 0.978625 4.18105 0.79425 3.92168 0.79425H1.50762C1.36133 0.79425 1.22104 0.852361 1.1176 0.955799C1.01417 1.05924 0.956055 1.19953 0.956055 1.34581C0.956055 1.4921 1.01417 1.63239 1.1176 1.73583C1.22104 1.83926 1.36133 1.89738 1.50762 1.89738H3.4748L3.84355 3.6505L4.75137 8.04581L3.58262 9.95363C3.52192 10.0355 3.48536 10.1328 3.47708 10.2344C3.4688 10.336 3.48912 10.438 3.53574 10.5286C3.62949 10.7146 3.81855 10.8318 4.02793 10.8318H5.00918C4.79999 11.1096 4.687 11.448 4.6873 11.7958C4.6873 12.6802 5.40605 13.3989 6.29043 13.3989C7.1748 13.3989 7.89355 12.6802 7.89355 11.7958C7.89355 11.4474 7.77793 11.1083 7.57168 10.8318H10.0889C9.87968 11.1096 9.76669 11.448 9.76699 11.7958C9.76699 12.6802 10.4857 13.3989 11.3701 13.3989C12.2545 13.3989 12.9732 12.6802 12.9732 11.7958C12.9732 11.4474 12.8576 11.1083 12.6514 10.8318H14.4217C14.7248 10.8318 14.9732 10.5849 14.9732 10.2802C14.9723 10.1341 14.9137 9.99422 14.81 9.89118C14.7064 9.78814 14.5663 9.73027 14.4201 9.73019V9.73019ZM4.77637 2.71613L13.7732 2.74581L12.892 7.68019L5.8248 7.69269L4.77637 2.71613ZM6.29043 12.2896C6.01855 12.2896 5.79668 12.0677 5.79668 11.7958C5.79668 11.5239 6.01855 11.3021 6.29043 11.3021C6.5623 11.3021 6.78418 11.5239 6.78418 11.7958C6.78418 11.9268 6.73216 12.0524 6.63956 12.1449C6.54697 12.2375 6.42138 12.2896 6.29043 12.2896V12.2896ZM11.3701 12.2896C11.0982 12.2896 10.8764 12.0677 10.8764 11.7958C10.8764 11.5239 11.0982 11.3021 11.3701 11.3021C11.642 11.3021 11.8639 11.5239 11.8639 11.7958C11.8639 11.9268 11.8118 12.0524 11.7193 12.1449C11.6267 12.2375 11.5011 12.2896 11.3701 12.2896V12.2896Z" fill="white"/>
</svg>
