<svg width="26" height="26" viewBox="0 0 26 26" fill="none" xmlns="http://www.w3.org/2000/svg">
<path d="M22.8228 0.314819H4.07275C2.34932 0.314819 0.947754 1.71638 0.947754 3.43982V22.1898C0.947754 23.9133 2.34932 25.3148 4.07275 25.3148H22.8228C24.5462 25.3148 25.9478 23.9133 25.9478 22.1898V3.43982C25.9478 1.71638 24.5462 0.314819 22.8228 0.314819Z" fill="#1976D2"/>
<path d="M22.0415 12.8148H18.1353V9.68982C18.1353 8.82732 18.8353 8.90857 19.6978 8.90857H21.2603V5.00232H18.1353C15.5462 5.00232 13.4478 7.10076 13.4478 9.68982V12.8148H10.3228V16.7211H13.4478V25.3148H18.1353V16.7211H20.479L22.0415 12.8148Z" fill="#FAFAFA"/>
</svg>
