<svg width="36" height="21" viewBox="0 0 36 21" fill="none" xmlns="http://www.w3.org/2000/svg">
<path d="M18.0988 20.7306H20.1934C20.1934 20.7306 20.8266 20.6605 21.1486 20.3121C21.4466 19.9922 21.4356 19.3919 21.4356 19.3919C21.4356 19.3919 21.394 16.5809 22.6998 16.1669C23.9859 15.7593 25.6378 18.8836 27.3884 20.0864C28.7117 20.9957 29.7173 20.7963 29.7173 20.7963L34.3994 20.7306C34.3994 20.7306 36.8488 20.5794 35.6876 18.6536C35.5934 18.4958 35.0106 17.2295 32.2062 14.6266C29.2704 11.9011 29.6648 12.3437 33.2009 7.63099C35.3546 4.76087 36.2156 3.00813 35.9462 2.25883C35.6898 1.54458 34.1058 1.733 34.1058 1.733L28.8388 1.76368C28.8388 1.76368 28.4488 1.7111 28.1574 1.88418C27.8748 2.05507 27.6929 2.44944 27.6929 2.44944C27.6929 2.44944 26.8582 4.67104 25.7452 6.55962C23.3987 10.5449 22.4588 10.7553 22.0754 10.5077C21.1837 9.93147 21.4071 8.18968 21.4071 6.95399C21.4071 3.09138 21.9921 1.48105 20.2657 1.06477C19.6917 0.926742 19.271 0.834723 17.8053 0.819387C15.9254 0.799668 14.3326 0.82596 13.4322 1.26634C12.8318 1.55992 12.3696 2.21501 12.6522 2.25226C13.0005 2.29827 13.7893 2.46478 14.2078 3.03442C14.7489 3.76838 14.7292 5.42034 14.7292 5.42034C14.7292 5.42034 15.0403 9.96652 14.004 10.5318C13.2919 10.9196 12.317 10.1286 10.2246 6.51142C9.15328 4.66009 8.34263 2.61157 8.34263 2.61157C8.34263 2.61157 8.18708 2.23035 7.90883 2.02659C7.57142 1.77901 7.09818 1.70014 7.09818 1.70014L2.08972 1.73081C2.08972 1.73081 1.33823 1.75272 1.06217 2.07917C0.816787 2.37057 1.04245 2.97088 1.04245 2.97088C1.04245 2.97088 4.96422 12.1443 9.40304 16.7694C13.476 21.0088 18.0988 20.7306 18.0988 20.7306Z" fill="#1E88E5"/>
</svg>
